<?xml version="1.0" encoding="UTF-8"?>
<svg width="736px" height="849px" viewBox="0 0 736 849" version="1.1" xmlns="http://www.w3.org/2000/svg" xmlns:xlink="http://www.w3.org/1999/xlink">
    <title>blastula_hex_logo</title>
    <defs>
        <linearGradient x1="50%" y1="0%" x2="50%" y2="100%" id="linearGradient-1">
            <stop stop-color="#B573B5" offset="0%"></stop>
            <stop stop-color="#76D4E6" offset="24.6312978%"></stop>
            <stop stop-color="#E0CDDE" offset="67.9388552%"></stop>
            <stop stop-color="#75DAE9" offset="100%"></stop>
        </linearGradient>
        <linearGradient x1="50%" y1="50%" x2="50%" y2="100%" id="linearGradient-2">
            <stop stop-color="#424242" stop-opacity="0.30114923" offset="0%"></stop>
            <stop stop-color="#D8D8D8" offset="100%"></stop>
        </linearGradient>
        <linearGradient x1="50%" y1="50%" x2="50%" y2="100%" id="linearGradient-3">
            <stop stop-color="#424242" stop-opacity="0.30114923" offset="0%"></stop>
            <stop stop-color="#BFBFBF" offset="100%"></stop>
        </linearGradient>
        <linearGradient x1="50%" y1="100%" x2="50%" y2="0.910460481%" id="linearGradient-4">
            <stop stop-color="#D8D8D8" offset="0%"></stop>
            <stop stop-color="#848188" offset="100%"></stop>
        </linearGradient>
        <linearGradient x1="50%" y1="0%" x2="50%" y2="100%" id="linearGradient-5">
            <stop stop-color="#C8C8C8" offset="0%"></stop>
            <stop stop-color="#93D2E4" offset="100%"></stop>
        </linearGradient>
    </defs>
    <g id="Logo" stroke="none" stroke-width="1" fill="none" fill-rule="evenodd">
        <g id="blastula_hex_logo">
            <polygon id="Path" fill="#424242" points="706.337612 195.45 428.537612 35.05 368.237612 0.25 307.937612 35.05 30.1376121 195.45 0.837612102 212.35 0.837612102 636.65 30.1376121 653.55 311.337612 815.95 368.237612 848.75 425.137612 815.95 706.337612 653.55 735.637612 636.65 735.637612 212.35"></polygon>
            <polygon id="Path" fill="url(#linearGradient-1)" points="565.930975 534.43158 368.644076 648.333984 171.357176 534.43158 171.357176 306.56842 368.644076 192.666016 565.930975 306.56842"></polygon>
            <polygon id="Rectangle-6-black" fill="url(#linearGradient-2)" points="368.720207 34.4981221 705.686979 226.834278 368.720207 419.834278 30.8996095 226.834278"></polygon>
            <polygon id="Rectangle-6-black-Copy-2" fill="url(#linearGradient-3)" points="368.720207 34.4981221 705.686979 226.834278 368.720207 419.834278 30.8996095 226.834278"></polygon>
            <polygon id="Rectangle-6-black-Copy-8" fill="url(#linearGradient-4)" transform="translate(368.800315, 251.464474) scale(1, -1) translate(-368.800315, -251.464474) " points="560.807969 196.482609 368.568695 306.446339 176.792661 196.482609"></polygon>
            <polygon id="Rectangle-6-black-Copy-9" fill="url(#linearGradient-4)" transform="translate(368.800315, 361.377525) scale(1, -1) rotate(-180.000000) translate(-368.800315, -361.377525) " points="560.807969 306.46026 369.043267 416.294791 176.792661 306.46026"></polygon>
            <polygon id="Rectangle-6-black-Copy" fill="url(#linearGradient-2)" transform="translate(369.139656, 612.502355) rotate(-180.000000) translate(-369.139656, -612.502355) " points="369.566569 419.834278 706.533341 612.170433 369.566569 805.170433 31.7459714 612.170433"></polygon>
            <polygon id="Rectangle-6-black-Copy-3" fill="url(#linearGradient-2)" transform="translate(369.139656, 612.502355) rotate(-180.000000) translate(-369.139656, -612.502355) " points="369.566569 419.834278 706.533341 612.170433 369.566569 805.170433 31.7459714 612.170433"></polygon>
            <polygon id="Rectangle-6-black-Copy-4" fill="url(#linearGradient-2)" transform="translate(369.139656, 612.502355) rotate(-180.000000) translate(-369.139656, -612.502355) " points="369.566569 419.834278 706.533341 612.170433 369.566569 805.170433 31.7459714 612.170433"></polygon>
            <polygon id="Rectangle-6-black-Copy-5" fill="url(#linearGradient-2)" transform="translate(369.139656, 612.502355) rotate(-180.000000) translate(-369.139656, -612.502355) " points="369.566569 419.834278 706.533341 612.170433 369.566569 805.170433 31.7459714 612.170433"></polygon>
            <polygon id="Rectangle-6-black-Copy-6" fill="url(#linearGradient-2)" transform="translate(369.139656, 612.502355) rotate(-180.000000) translate(-369.139656, -612.502355) " points="369.566569 419.834278 706.533341 612.170433 369.566569 805.170433 31.7459714 612.170433"></polygon>
            <polygon id="Rectangle-6-black-Copy-7" fill="url(#linearGradient-2)" transform="translate(369.139656, 612.502355) rotate(-180.000000) translate(-369.139656, -612.502355) " points="369.566569 419.834278 706.533341 612.170433 369.566569 805.170433 31.7459714 612.170433"></polygon>
            <polygon id="Path-Copy" fill="url(#linearGradient-5)" points="171.002019 535.365673 368.688052 422.141277 565.54043 535.353708"></polygon>
            <path d="M234.637363,615.723996 L234.637363,626.635996 C234.637363,643.995996 223.229363,654.535996 209.217363,654.535996 C195.205363,654.535996 183.797363,643.995996 183.797363,626.635996 L183.797363,564.635996 C183.797363,561.907996 186.029363,559.675996 188.757363,559.675996 C191.485363,559.675996 193.717363,561.907996 193.717363,564.635996 L193.717363,595.511996 C198.429363,591.171996 203.513363,588.815996 210.209363,588.815996 C223.725363,588.815996 234.637363,599.231996 234.637363,615.723996 Z M224.717363,627.255996 L224.717363,615.971996 C224.717363,604.687996 217.773363,598.239996 209.217363,598.239996 C200.661363,598.239996 193.717363,605.307996 193.717363,613.987996 L193.717363,627.255996 C193.717363,638.663996 200.661363,645.111996 209.217363,645.111996 C217.773363,645.111996 224.717363,638.663996 224.717363,627.255996 Z M254.663363,652.675996 C251.935363,652.675996 249.703363,650.443996 249.703363,647.715996 L249.703363,564.635996 C249.703363,561.907996 251.935363,559.675996 254.663363,559.675996 C257.391363,559.675996 259.623363,561.907996 259.623363,564.635996 L259.623363,647.715996 C259.623363,650.443996 257.391363,652.675996 254.663363,652.675996 Z M307.053363,616.839996 L307.053363,613.491996 C307.053363,607.043996 304.077363,600.099996 293.661363,600.099996 L279.773363,600.099996 C277.169363,600.099996 275.061363,597.991996 275.061363,595.387996 C275.061363,592.783996 277.169363,590.675996 279.773363,590.675996 L293.909363,590.675996 C310.897363,590.675996 316.973363,602.207996 316.973363,613.739996 L316.973363,632.711996 C316.973363,644.739996 307.177363,654.535996 295.149363,654.535996 C283.741363,654.535996 273.449363,644.243996 273.449363,632.711996 C273.449363,621.303996 282.749363,612.003996 294.157363,612.003996 C299.365363,612.003996 303.209363,613.615996 307.053363,616.839996 Z M307.053363,633.331996 C307.053363,626.387996 301.473363,620.807996 294.653363,620.807996 C287.833363,620.807996 282.253363,626.387996 282.253363,633.331996 C282.253363,640.151996 287.833363,645.731996 294.653363,645.731996 C301.473363,645.731996 307.053363,640.151996 307.053363,633.331996 Z M346.299363,654.535996 C340.099363,654.535996 333.651363,651.559996 329.931363,645.607996 C329.311363,644.615996 328.939363,643.871996 328.939363,642.879996 C328.939363,640.647996 330.675363,638.415996 333.775363,638.415996 C335.139363,638.415996 336.503363,639.035996 337.495363,640.399996 C339.107363,642.631996 341.835363,645.111996 345.431363,645.111996 C352.375363,645.111996 356.715363,640.399996 356.715363,634.571996 C356.715363,627.627996 350.391363,625.023996 346.547363,624.279996 C336.999363,622.419996 330.551363,615.599996 330.551363,607.415996 C330.551363,598.239996 337.743363,590.675996 349.151363,590.675996 L353.987363,590.675996 C356.591363,590.675996 358.699363,592.783996 358.699363,595.387996 C358.699363,597.991996 356.591363,600.099996 353.987363,600.099996 L349.151363,600.099996 C342.951363,600.099996 340.223363,602.951996 340.223363,607.415996 C340.223363,612.871996 346.671363,614.359996 348.655363,614.731996 C359.691363,617.087996 366.387363,624.651996 366.387363,634.571996 C366.387363,645.607996 357.211363,654.535996 346.299363,654.535996 Z M400.549363,643.251996 L405.137363,643.251996 C407.741363,643.251996 409.849363,645.359996 409.849363,647.963996 C409.849363,650.567996 407.741363,652.675996 405.137363,652.675996 L399.681363,652.675996 C387.901363,652.675996 380.833363,645.607996 380.833363,633.827996 L380.833363,600.099996 L376.493363,600.099996 C373.889363,600.099996 371.781363,597.991996 371.781363,595.387996 C371.781363,592.783996 373.889363,590.675996 376.493363,590.675996 L380.833363,590.675996 L380.833363,577.531996 C380.833363,574.679996 383.065363,572.447996 385.917363,572.447996 C388.645363,572.447996 390.753363,574.679996 390.753363,577.407996 L390.753363,590.675996 L404.889363,590.675996 C407.493363,590.675996 409.601363,592.783996 409.601363,595.387996 C409.601363,597.991996 407.493363,600.099996 404.889363,600.099996 L390.753363,600.099996 L390.753363,633.455996 C390.753363,639.903996 393.853363,643.251996 400.549363,643.251996 Z M426.279363,590.675996 C429.007363,590.675996 431.239363,592.907996 431.239363,595.635996 L431.239363,627.627996 C431.239363,638.787996 438.183363,645.111996 446.739363,645.111996 C455.295363,645.111996 462.239363,638.787996 462.239363,627.627996 L462.239363,595.635996 C462.239363,592.907996 464.471363,590.675996 467.199363,590.675996 C469.927363,590.675996 472.159363,592.907996 472.159363,595.635996 L472.159363,626.635996 C472.159363,643.995996 460.751363,654.535996 446.739363,654.535996 C432.727363,654.535996 421.319363,643.995996 421.319363,626.635996 L421.319363,595.635996 C421.319363,592.907996 423.551363,590.675996 426.279363,590.675996 Z M492.929363,652.675996 C490.201363,652.675996 487.969363,650.443996 487.969363,647.715996 L487.969363,564.635996 C487.969363,561.907996 490.201363,559.675996 492.929363,559.675996 C495.657363,559.675996 497.889363,561.907996 497.889363,564.635996 L497.889363,647.715996 C497.889363,650.443996 495.657363,652.675996 492.929363,652.675996 Z M545.319363,616.839996 L545.319363,613.491996 C545.319363,607.043996 542.343363,600.099996 531.927363,600.099996 L518.039363,600.099996 C515.435363,600.099996 513.327363,597.991996 513.327363,595.387996 C513.327363,592.783996 515.435363,590.675996 518.039363,590.675996 L532.175363,590.675996 C549.163363,590.675996 555.239363,602.207996 555.239363,613.739996 L555.239363,632.711996 C555.239363,644.739996 545.443363,654.535996 533.415363,654.535996 C522.007363,654.535996 511.715363,644.243996 511.715363,632.711996 C511.715363,621.303996 521.015363,612.003996 532.423363,612.003996 C537.631363,612.003996 541.475363,613.615996 545.319363,616.839996 Z M545.319363,633.331996 C545.319363,626.387996 539.739363,620.807996 532.919363,620.807996 C526.099363,620.807996 520.519363,626.387996 520.519363,633.331996 C520.519363,640.151996 526.099363,645.731996 532.919363,645.731996 C539.739363,645.731996 545.319363,640.151996 545.319363,633.331996 Z" id="blastula" fill="#E6E6E6"></path>
        </g>
    </g>
</svg>
