<?xml version="1.0" encoding="UTF-8" standalone="no"?>
<!-- Created with Keyshape -->
<svg xmlns="http://www.w3.org/2000/svg" width="736px" height="849px" viewBox="0 0 736 849">
    <defs>
        <linearGradient id="Gradient-0" x1="0.5" y1="0" x2="0.5" y2="1">
            <stop offset="0" stop-color="#b573b5"/>
            <stop offset="0.246313" stop-color="#76d4e6"/>
            <stop offset="0.679389" stop-color="#e0cdde"/>
            <stop offset="1" stop-color="#75dae9"/>
        </linearGradient>
        <linearGradient id="Gradient-1" x1="0.5" y1="0.5" x2="0.5" y2="1">
            <stop offset="0" stop-color="#424242" stop-opacity="0.3"/>
            <stop offset="1" stop-color="#d8d8d8"/>
        </linearGradient>
        <linearGradient id="Gradient-2" x1="0.5" y1="0.5" x2="0.5" y2="1">
            <stop offset="0" stop-color="#424242" stop-opacity="0.3"/>
            <stop offset="1" stop-color="#bfbfbf"/>
        </linearGradient>
        <linearGradient id="Gradient-3" x1="0.5" y1="0.5" x2="0.5" y2="1">
            <stop offset="0" stop-color="#403d40" stop-opacity="0.3"/>
            <stop offset="1" stop-color="#d8d8d8"/>
        </linearGradient>
        <linearGradient id="Gradient-4" x1="0.5" y1="1" x2="0.5" y2="0.0091046">
            <stop offset="0" stop-color="#d8d8d8"/>
            <stop offset="1" stop-color="#848188"/>
        </linearGradient>
        <linearGradient id="Gradient-5" x1="0.5" y1="0" x2="0.5" y2="1">
            <stop offset="0" stop-color="#c8c8c8"/>
            <stop offset="1" stop-color="#93d2e4"/>
        </linearGradient>
    </defs>
    <style>
@keyframes upper_rectangle_3_fo { 0% { fill-opacity: 1; } 50% { fill-opacity: 0.5; } 100% { fill-opacity: 1; } }
@keyframes upper_rectangle_2_fo { 0% { fill-opacity: 1; } 50% { fill-opacity: 0.5; } 100% { fill-opacity: 1; } }
@keyframes lower_rectangle_6_fo { 0% { fill-opacity: 1; } 50% { fill-opacity: 0.5; } 100% { fill-opacity: 1; } }
@keyframes lower_rectangle_5_fo { 0% { fill-opacity: 1; } 50% { fill-opacity: 0.5; } 100% { fill-opacity: 1; } }
@keyframes lower_rectangle_4_fo { 0% { fill-opacity: 1; } 50% { fill-opacity: 0.5; } 100% { fill-opacity: 1; } }
@keyframes lower_rectangle_3_fo { 0% { fill-opacity: 1; } 50% { fill-opacity: 0.5; } 100% { fill-opacity: 1; } }
@keyframes lower_rectangle_2_fo { 0% { fill-opacity: 1; } 50% { fill-opacity: 0.5; } 100% { fill-opacity: 1; } }
@keyframes lower_rectangle_1_fo { 0% { fill-opacity: 1; } 50% { fill-opacity: 0.5; } 100% { fill-opacity: 1; } }
@keyframes envelope_mid_fo { 0% { fill-opacity: 1; } 50% { fill-opacity: 0.2; } 100% { fill-opacity: 1; } }
@keyframes envelope_top_fo { 0% { fill-opacity: 1; } 50% { fill-opacity: 0.2; } 100% { fill-opacity: 1; } }
@keyframes envelope_bottom_fo { 0% { fill-opacity: 1; } 50% { fill-opacity: 0.2; } 100% { fill-opacity: 1; } }
    </style>
    <title>blastula_hex_logo</title>
    <desc>Created with Sketch.</desc>
    <g id="blastula" stroke="none" stroke-width="1" fill="none" fill-rule="evenodd">
        <g id="blastula_hex_logo">
            <path id="hex_outside" fill="#424242" d="M706.338,195.45L428.538,35.05L368.238,0.25L307.938,35.05L30.1376,195.45L0.837612,212.35L0.837612,636.65L30.1376,653.55L311.338,815.95L368.238,848.75L425.138,815.95L706.338,653.55L735.638,636.65L735.638,212.35Z"/>
            <path id="envelope_hex" fill="url(#Gradient-0)" d="M565.931,534.432L368.644,648.334L171.357,534.432L171.357,306.568L368.644,192.666L565.931,306.568Z"/>
            <path id="upper_rectangle_3" fill="url(#Gradient-1)" d="M368.72,34.4981L705.687,226.834L368.72,419.834L30.8996,226.834Z" fill-opacity="1" style="animation: 6s linear infinite both upper_rectangle_3_fo;"/>
            <path id="upper_rectangle_2" fill="url(#Gradient-2)" d="M368.72,34.4981L705.687,226.834L368.72,419.834L30.8996,226.834Z" fill-opacity="1" style="animation: 6s linear infinite both upper_rectangle_2_fo;"/>
            <path id="lower_rectangle_6" fill="url(#Gradient-1)" d="M369.567,419.834L706.533,612.17L369.567,805.17L31.746,612.17Z" fill-opacity="1" transform="translate(369.14,612.502) rotate(-180) translate(-369.14,-612.502)" style="animation: 6s linear infinite both lower_rectangle_6_fo;"/>
            <path id="lower_rectangle_5" fill="url(#Gradient-1)" d="M369.567,419.834L706.533,612.17L369.567,805.17L31.746,612.17Z" fill-opacity="1" transform="translate(369.14,612.502) rotate(-180) translate(-369.14,-612.502)" style="animation: 6s linear infinite both lower_rectangle_5_fo;"/>
            <path id="lower_rectangle_4" fill="url(#Gradient-1)" d="M369.567,419.834L706.533,612.17L369.567,805.17L31.746,612.17Z" fill-opacity="1" transform="translate(369.14,612.502) rotate(-180) translate(-369.14,-612.502)" style="animation: 6s linear infinite both lower_rectangle_4_fo;"/>
            <path id="lower_rectangle_3" fill="url(#Gradient-1)" d="M369.567,419.834L706.533,612.17L369.567,805.17L31.746,612.17Z" fill-opacity="1" transform="translate(369.14,612.502) rotate(-180) translate(-369.14,-612.502)" style="animation: 6s linear infinite both lower_rectangle_3_fo;"/>
            <path id="lower_rectangle_2" fill="url(#Gradient-3)" d="M369.567,419.834L706.533,612.17L369.567,805.17L31.746,612.17Z" fill-opacity="1" transform="translate(369.14,612.502) rotate(-180) translate(-369.14,-612.502)" style="animation: 6s linear infinite both lower_rectangle_2_fo;"/>
            <path id="lower_rectangle_1" fill="url(#Gradient-3)" d="M369.567,419.834L706.533,612.17L369.567,805.17L31.746,612.17Z" fill-opacity="1" transform="translate(369.14,612.502) rotate(-180) translate(-369.14,-612.502)" style="animation: 6s linear infinite both lower_rectangle_1_fo;"/>
            <path id="envelope_mid" fill="url(#Gradient-4)" d="M560.808,306.46L369.043,416.295L176.793,306.46Z" fill-opacity="1" transform="translate(737.601,0) scale(-1,1)" style="animation: 6s linear infinite both envelope_mid_fo;"/>
            <path id="envelope_top" fill="url(#Gradient-4)" d="M560.808,196.483L368.569,306.446L176.793,196.483Z" fill-opacity="1" transform="translate(368.8,251.464) scale(1,-1) translate(-368.8,-251.464)" style="animation: 6s linear infinite both envelope_top_fo;"/>
            <path id="envelope_bottom" fill="url(#Gradient-5)" d="M171.002,535.366L368.688,422.141L565.54,535.354Z" fill-opacity="1" style="animation: 6s linear infinite both envelope_bottom_fo;"/>
            <path id="blastula_text" d="M234.637,615.724L234.637,626.636C234.637,643.996,223.229,654.536,209.217,654.536C195.205,654.536,183.797,643.996,183.797,626.636L183.797,564.636C183.797,561.908,186.029,559.676,188.757,559.676C191.485,559.676,193.717,561.908,193.717,564.636L193.717,595.512C198.429,591.172,203.513,588.816,210.209,588.816C223.725,588.816,234.637,599.232,234.637,615.724ZM224.717,627.256L224.717,615.972C224.717,604.688,217.773,598.24,209.217,598.24C200.661,598.24,193.717,605.308,193.717,613.988L193.717,627.256C193.717,638.664,200.661,645.112,209.217,645.112C217.773,645.112,224.717,638.664,224.717,627.256ZM254.663,652.676C251.935,652.676,249.703,650.444,249.703,647.716L249.703,564.636C249.703,561.908,251.935,559.676,254.663,559.676C257.391,559.676,259.623,561.908,259.623,564.636L259.623,647.716C259.623,650.444,257.391,652.676,254.663,652.676ZM307.053,616.84L307.053,613.492C307.053,607.044,304.077,600.1,293.661,600.1L279.773,600.1C277.169,600.1,275.061,597.992,275.061,595.388C275.061,592.784,277.169,590.676,279.773,590.676L293.909,590.676C310.897,590.676,316.973,602.208,316.973,613.74L316.973,632.712C316.973,644.74,307.177,654.536,295.149,654.536C283.741,654.536,273.449,644.244,273.449,632.712C273.449,621.304,282.749,612.004,294.157,612.004C299.365,612.004,303.209,613.616,307.053,616.84ZM307.053,633.332C307.053,626.388,301.473,620.808,294.653,620.808C287.833,620.808,282.253,626.388,282.253,633.332C282.253,640.152,287.833,645.732,294.653,645.732C301.473,645.732,307.053,640.152,307.053,633.332ZM346.299,654.536C340.099,654.536,333.651,651.56,329.931,645.608C329.311,644.616,328.939,643.872,328.939,642.88C328.939,640.648,330.675,638.416,333.775,638.416C335.139,638.416,336.503,639.036,337.495,640.4C339.107,642.632,341.835,645.112,345.431,645.112C352.375,645.112,356.715,640.4,356.715,634.572C356.715,627.628,350.391,625.024,346.547,624.28C336.999,622.42,330.551,615.6,330.551,607.416C330.551,598.24,337.743,590.676,349.151,590.676L353.987,590.676C356.591,590.676,358.699,592.784,358.699,595.388C358.699,597.992,356.591,600.1,353.987,600.1L349.151,600.1C342.951,600.1,340.223,602.952,340.223,607.416C340.223,612.872,346.671,614.36,348.655,614.732C359.691,617.088,366.387,624.652,366.387,634.572C366.387,645.608,357.211,654.536,346.299,654.536ZM400.549,643.252L405.137,643.252C407.741,643.252,409.849,645.36,409.849,647.964C409.849,650.568,407.741,652.676,405.137,652.676L399.681,652.676C387.901,652.676,380.833,645.608,380.833,633.828L380.833,600.1L376.493,600.1C373.889,600.1,371.781,597.992,371.781,595.388C371.781,592.784,373.889,590.676,376.493,590.676L380.833,590.676L380.833,577.532C380.833,574.68,383.065,572.448,385.917,572.448C388.645,572.448,390.753,574.68,390.753,577.408L390.753,590.676L404.889,590.676C407.493,590.676,409.601,592.784,409.601,595.388C409.601,597.992,407.493,600.1,404.889,600.1L390.753,600.1L390.753,633.456C390.753,639.904,393.853,643.252,400.549,643.252ZM426.279,590.676C429.007,590.676,431.239,592.908,431.239,595.636L431.239,627.628C431.239,638.788,438.183,645.112,446.739,645.112C455.295,645.112,462.239,638.788,462.239,627.628L462.239,595.636C462.239,592.908,464.471,590.676,467.199,590.676C469.927,590.676,472.159,592.908,472.159,595.636L472.159,626.636C472.159,643.996,460.751,654.536,446.739,654.536C432.727,654.536,421.319,643.996,421.319,626.636L421.319,595.636C421.319,592.908,423.551,590.676,426.279,590.676ZM492.929,652.676C490.201,652.676,487.969,650.444,487.969,647.716L487.969,564.636C487.969,561.908,490.201,559.676,492.929,559.676C495.657,559.676,497.889,561.908,497.889,564.636L497.889,647.716C497.889,650.444,495.657,652.676,492.929,652.676ZM545.319,616.84L545.319,613.492C545.319,607.044,542.343,600.1,531.927,600.1L518.039,600.1C515.435,600.1,513.327,597.992,513.327,595.388C513.327,592.784,515.435,590.676,518.039,590.676L532.175,590.676C549.163,590.676,555.239,602.208,555.239,613.74L555.239,632.712C555.239,644.74,545.443,654.536,533.415,654.536C522.007,654.536,511.715,644.244,511.715,632.712C511.715,621.304,521.015,612.004,532.423,612.004C537.631,612.004,541.475,613.616,545.319,616.84ZM545.319,633.332C545.319,626.388,539.739,620.808,532.919,620.808C526.099,620.808,520.519,626.388,520.519,633.332C520.519,640.152,526.099,645.732,532.919,645.732C539.739,645.732,545.319,640.152,545.319,633.332Z" fill="#E6E6E6"/>
        </g>
    </g>
</svg>
