<?xml version="1.0" encoding="UTF-8"?>
<svg width="736px" height="849px" viewBox="0 0 736 849" version="1.1" xmlns="http://www.w3.org/2000/svg" xmlns:xlink="http://www.w3.org/1999/xlink">
    <defs>
        <linearGradient x1="50%" y1="0%" x2="50%" y2="100%" id="linearGradient-1">
            <stop stop-color="#B573B5" offset="0%"></stop>
            <stop stop-color="#76D4E6" offset="24.6312978%"></stop>
            <stop stop-color="#E0CDDE" offset="67.9388552%"></stop>
            <stop stop-color="#75DAE9" offset="100%"></stop>
        </linearGradient>
        <linearGradient x1="50%" y1="50%" x2="50%" y2="100%" id="linearGradient-2">
            <stop stop-color="#424242" stop-opacity="0.30114923" offset="0%"></stop>
            <stop stop-color="#D8D8D8" offset="100%"></stop>
        </linearGradient>
        <linearGradient x1="50%" y1="50%" x2="50%" y2="100%" id="linearGradient-3">
            <stop stop-color="#424242" stop-opacity="0.30114923" offset="0%"></stop>
            <stop stop-color="#BFBFBF" offset="100%"></stop>
        </linearGradient>
        <linearGradient x1="50%" y1="100%" x2="50%" y2="0.910460481%" id="linearGradient-4">
            <stop stop-color="#D8D8D8" offset="0%"></stop>
            <stop stop-color="#848188" offset="100%"></stop>
        </linearGradient>
        <linearGradient x1="50%" y1="0%" x2="50%" y2="100%" id="linearGradient-5">
            <stop stop-color="#C8C8C8" offset="0%"></stop>
            <stop stop-color="#93D2E4" offset="100%"></stop>
        </linearGradient>
    </defs>
    <g id="Page-1" stroke="none" stroke-width="1" fill="none" fill-rule="evenodd">
        <g id="blastula_hex_logo">
            <polygon id="Path" fill="#424242" points="706.337612 195.45 428.537612 35.05 368.237612 0.25 307.937612 35.05 30.1376121 195.45 0.837612102 212.35 0.837612102 636.65 30.1376121 653.55 311.337612 815.95 368.237612 848.75 425.137612 815.95 706.337612 653.55 735.637612 636.65 735.637612 212.35"></polygon>
            <polygon id="Path" fill="url(#linearGradient-1)" points="565.524512 521.43158 368.237612 635.333984 170.950713 521.43158 170.950713 293.56842 368.237612 179.666016 565.524512 293.56842"></polygon>
            <polygon id="Rectangle-6-black" fill="url(#linearGradient-2)" points="368.720207 20.4981221 705.686979 212.834278 368.720207 405.834278 30.8996095 212.834278"></polygon>
            <polygon id="Rectangle-6-black-Copy-2" fill="url(#linearGradient-3)" points="368.720207 20.4981221 705.686979 212.834278 368.720207 405.834278 30.8996095 212.834278"></polygon>
            <polygon id="Rectangle-6-black-Copy-8" fill="url(#linearGradient-4)" transform="translate(368.800315, 238.529074) scale(1, -1) translate(-368.800315, -238.529074) " points="560.807969 183.611808 369.043267 293.446339 176.792661 183.611808"></polygon>
            <polygon id="Rectangle-6-black-Copy-9" fill="url(#linearGradient-4)" transform="translate(368.800315, 348.377525) scale(1, -1) rotate(-180.000000) translate(-368.800315, -348.377525) " points="560.807969 293.46026 369.043267 403.294791 176.792661 293.46026"></polygon>
            <polygon id="Rectangle-6-black-Copy" fill="url(#linearGradient-2)" transform="translate(369.139656, 599.502355) rotate(-180.000000) translate(-369.139656, -599.502355) " points="369.566569 406.834278 706.533341 599.170433 369.566569 792.170433 31.7459714 599.170433"></polygon>
            <polygon id="Rectangle-6-black-Copy-3" fill="url(#linearGradient-2)" transform="translate(369.139656, 599.502355) rotate(-180.000000) translate(-369.139656, -599.502355) " points="369.566569 406.834278 706.533341 599.170433 369.566569 792.170433 31.7459714 599.170433"></polygon>
            <polygon id="Rectangle-6-black-Copy-4" fill="url(#linearGradient-2)" transform="translate(369.139656, 599.502355) rotate(-180.000000) translate(-369.139656, -599.502355) " points="369.566569 406.834278 706.533341 599.170433 369.566569 792.170433 31.7459714 599.170433"></polygon>
            <polygon id="Rectangle-6-black-Copy-5" fill="url(#linearGradient-2)" transform="translate(369.139656, 599.502355) rotate(-180.000000) translate(-369.139656, -599.502355) " points="369.566569 406.834278 706.533341 599.170433 369.566569 792.170433 31.7459714 599.170433"></polygon>
            <polygon id="Rectangle-6-black-Copy-6" fill="url(#linearGradient-2)" transform="translate(369.139656, 599.502355) rotate(-180.000000) translate(-369.139656, -599.502355) " points="369.566569 406.834278 706.533341 599.170433 369.566569 792.170433 31.7459714 599.170433"></polygon>
            <polygon id="Rectangle-6-black-Copy-7" fill="url(#linearGradient-2)" transform="translate(369.139656, 599.502355) rotate(-180.000000) translate(-369.139656, -599.502355) " points="369.566569 406.834278 706.533341 599.170433 369.566569 792.170433 31.7459714 599.170433"></polygon>
            <polygon id="Path-Copy" fill="url(#linearGradient-5)" points="171.002019 522.365673 368.688052 409.141277 565.54043 522.353708"></polygon>
            <path d="M233.637363,610.723996 L233.637363,621.635996 C233.637363,638.995996 222.229363,649.535996 208.217363,649.535996 C194.205363,649.535996 182.797363,638.995996 182.797363,621.635996 L182.797363,559.635996 C182.797363,556.907996 185.029363,554.675996 187.757363,554.675996 C190.485363,554.675996 192.717363,556.907996 192.717363,559.635996 L192.717363,590.511996 C197.429363,586.171996 202.513363,583.815996 209.209363,583.815996 C222.725363,583.815996 233.637363,594.231996 233.637363,610.723996 Z M223.717363,622.255996 L223.717363,610.971996 C223.717363,599.687996 216.773363,593.239996 208.217363,593.239996 C199.661363,593.239996 192.717363,600.307996 192.717363,608.987996 L192.717363,622.255996 C192.717363,633.663996 199.661363,640.111996 208.217363,640.111996 C216.773363,640.111996 223.717363,633.663996 223.717363,622.255996 Z M253.663363,647.675996 C250.935363,647.675996 248.703363,645.443996 248.703363,642.715996 L248.703363,559.635996 C248.703363,556.907996 250.935363,554.675996 253.663363,554.675996 C256.391363,554.675996 258.623363,556.907996 258.623363,559.635996 L258.623363,642.715996 C258.623363,645.443996 256.391363,647.675996 253.663363,647.675996 Z M306.053363,611.839996 L306.053363,608.491996 C306.053363,602.043996 303.077363,595.099996 292.661363,595.099996 L278.773363,595.099996 C276.169363,595.099996 274.061363,592.991996 274.061363,590.387996 C274.061363,587.783996 276.169363,585.675996 278.773363,585.675996 L292.909363,585.675996 C309.897363,585.675996 315.973363,597.207996 315.973363,608.739996 L315.973363,627.711996 C315.973363,639.739996 306.177363,649.535996 294.149363,649.535996 C282.741363,649.535996 272.449363,639.243996 272.449363,627.711996 C272.449363,616.303996 281.749363,607.003996 293.157363,607.003996 C298.365363,607.003996 302.209363,608.615996 306.053363,611.839996 Z M306.053363,628.331996 C306.053363,621.387996 300.473363,615.807996 293.653363,615.807996 C286.833363,615.807996 281.253363,621.387996 281.253363,628.331996 C281.253363,635.151996 286.833363,640.731996 293.653363,640.731996 C300.473363,640.731996 306.053363,635.151996 306.053363,628.331996 Z M345.299363,649.535996 C339.099363,649.535996 332.651363,646.559996 328.931363,640.607996 C328.311363,639.615996 327.939363,638.871996 327.939363,637.879996 C327.939363,635.647996 329.675363,633.415996 332.775363,633.415996 C334.139363,633.415996 335.503363,634.035996 336.495363,635.399996 C338.107363,637.631996 340.835363,640.111996 344.431363,640.111996 C351.375363,640.111996 355.715363,635.399996 355.715363,629.571996 C355.715363,622.627996 349.391363,620.023996 345.547363,619.279996 C335.999363,617.419996 329.551363,610.599996 329.551363,602.415996 C329.551363,593.239996 336.743363,585.675996 348.151363,585.675996 L352.987363,585.675996 C355.591363,585.675996 357.699363,587.783996 357.699363,590.387996 C357.699363,592.991996 355.591363,595.099996 352.987363,595.099996 L348.151363,595.099996 C341.951363,595.099996 339.223363,597.951996 339.223363,602.415996 C339.223363,607.871996 345.671363,609.359996 347.655363,609.731996 C358.691363,612.087996 365.387363,619.651996 365.387363,629.571996 C365.387363,640.607996 356.211363,649.535996 345.299363,649.535996 Z M399.549363,638.251996 L404.137363,638.251996 C406.741363,638.251996 408.849363,640.359996 408.849363,642.963996 C408.849363,645.567996 406.741363,647.675996 404.137363,647.675996 L398.681363,647.675996 C386.901363,647.675996 379.833363,640.607996 379.833363,628.827996 L379.833363,595.099996 L375.493363,595.099996 C372.889363,595.099996 370.781363,592.991996 370.781363,590.387996 C370.781363,587.783996 372.889363,585.675996 375.493363,585.675996 L379.833363,585.675996 L379.833363,572.531996 C379.833363,569.679996 382.065363,567.447996 384.917363,567.447996 C387.645363,567.447996 389.753363,569.679996 389.753363,572.407996 L389.753363,585.675996 L403.889363,585.675996 C406.493363,585.675996 408.601363,587.783996 408.601363,590.387996 C408.601363,592.991996 406.493363,595.099996 403.889363,595.099996 L389.753363,595.099996 L389.753363,628.455996 C389.753363,634.903996 392.853363,638.251996 399.549363,638.251996 Z M425.279363,585.675996 C428.007363,585.675996 430.239363,587.907996 430.239363,590.635996 L430.239363,622.627996 C430.239363,633.787996 437.183363,640.111996 445.739363,640.111996 C454.295363,640.111996 461.239363,633.787996 461.239363,622.627996 L461.239363,590.635996 C461.239363,587.907996 463.471363,585.675996 466.199363,585.675996 C468.927363,585.675996 471.159363,587.907996 471.159363,590.635996 L471.159363,621.635996 C471.159363,638.995996 459.751363,649.535996 445.739363,649.535996 C431.727363,649.535996 420.319363,638.995996 420.319363,621.635996 L420.319363,590.635996 C420.319363,587.907996 422.551363,585.675996 425.279363,585.675996 Z M491.929363,647.675996 C489.201363,647.675996 486.969363,645.443996 486.969363,642.715996 L486.969363,559.635996 C486.969363,556.907996 489.201363,554.675996 491.929363,554.675996 C494.657363,554.675996 496.889363,556.907996 496.889363,559.635996 L496.889363,642.715996 C496.889363,645.443996 494.657363,647.675996 491.929363,647.675996 Z M544.319363,611.839996 L544.319363,608.491996 C544.319363,602.043996 541.343363,595.099996 530.927363,595.099996 L517.039363,595.099996 C514.435363,595.099996 512.327363,592.991996 512.327363,590.387996 C512.327363,587.783996 514.435363,585.675996 517.039363,585.675996 L531.175363,585.675996 C548.163363,585.675996 554.239363,597.207996 554.239363,608.739996 L554.239363,627.711996 C554.239363,639.739996 544.443363,649.535996 532.415363,649.535996 C521.007363,649.535996 510.715363,639.243996 510.715363,627.711996 C510.715363,616.303996 520.015363,607.003996 531.423363,607.003996 C536.631363,607.003996 540.475363,608.615996 544.319363,611.839996 Z M544.319363,628.331996 C544.319363,621.387996 538.739363,615.807996 531.919363,615.807996 C525.099363,615.807996 519.519363,621.387996 519.519363,628.331996 C519.519363,635.151996 525.099363,640.731996 531.919363,640.731996 C538.739363,640.731996 544.319363,635.151996 544.319363,628.331996 Z" id="blastula" fill="#E6E6E6"></path>
        </g>
    </g>
</svg>
